<svg width="29" height="29" viewBox="0 0 29 29" fill="none" xmlns="http://www.w3.org/2000/svg">
<path d="M14.0489 5.92705C14.3483 5.00574 15.6517 5.00574 15.9511 5.92705L17.4697 10.6008C17.6035 11.0128 17.9875 11.2918 18.4207 11.2918H23.335C24.3037 11.2918 24.7065 12.5314 23.9228 13.1008L19.947 15.9894C19.5966 16.244 19.4499 16.6954 19.5838 17.1074L21.1024 21.7812C21.4017 22.7025 20.3472 23.4686 19.5635 22.8992L15.5878 20.0106C15.2373 19.756 14.7627 19.756 14.4122 20.0106L10.4365 22.8992C9.65276 23.4686 8.59828 22.7025 8.89763 21.7812L10.4162 17.1074C10.5501 16.6954 10.4034 16.244 10.053 15.9894L6.07722 13.1008C5.29351 12.5314 5.69628 11.2918 6.66501 11.2918H11.5793C12.0125 11.2918 12.3965 11.0128 12.5303 10.6008L14.0489 5.92705Z" fill="#ECECEC"/>
</svg>
