<svg width="30" height="30" viewBox="0 0 30 30" fill="none" xmlns="http://www.w3.org/2000/svg">
<path d="M14.7995 4.6123C15.407 4.6123 15.8994 5.10491 15.8994 5.71249C15.9004 5.85611 15.8727 5.99852 15.818 6.13156C15.7632 6.26461 15.6824 6.38568 15.5803 6.48786C15.4781 6.59003 15.3566 6.67131 15.2226 6.72705C15.0886 6.78278 14.9449 6.81188 14.7995 6.81267H8.39975C7.18468 6.81267 6.19988 7.79787 6.19988 9.01182V21.2116C6.19988 22.4267 7.18468 23.4119 8.39975 23.4119H19.599C20.8141 23.4119 21.8001 22.4267 21.8001 21.2116V14.8358C21.8001 14.2282 22.2925 13.7356 22.9001 13.7356C23.5076 13.7356 24 14.2282 24 14.837V21.2116C24 23.6419 22.0292 25.6123 19.599 25.6123H8.39975C5.9696 25.6123 4 23.6419 4 21.2116V9.01182C4 6.58271 5.9696 4.6123 8.39975 4.6123H14.7995Z" fill="#262626"/>
<path d="M9.28027 20.28H12.3545C12.6197 20.28 12.8741 20.1746 13.0616 19.9871L24.146 8.90275C24.9271 8.12167 24.927 6.85528 24.1459 6.07424L23.4856 5.41407C22.7046 4.63309 21.4383 4.63314 20.6573 5.41418L9.57316 16.4987C9.38563 16.6862 9.28027 16.9405 9.28027 17.2057V20.28Z" stroke="#262626" stroke-width="1.76" stroke-linejoin="round"/>
<path d="M18.583 7.48828L22.0715 10.9771" stroke="#262626" stroke-width="1.76" stroke-linecap="round" stroke-linejoin="round"/>
</svg>
