<svg width="360" height="60" viewBox="0 0 360 60" fill="none" xmlns="http://www.w3.org/2000/svg">
<rect x="16" y="12" width="328" height="36" rx="10" fill="#ECECEC"/>
<circle cx="39" cy="29" r="6" stroke="#656565" stroke-width="1.5"/>
<path d="M46.0053 37.0655C46.2982 37.3584 46.7731 37.3584 47.066 37.0655C47.3589 36.7726 47.3589 36.2977 47.066 36.0048L46.0053 37.0655ZM47.066 36.0048L43.5304 32.4693L42.4698 33.53L46.0053 37.0655L47.066 36.0048Z" fill="#656565"/>
<path d="M70.816 23.712H72.208C72.208 27.36 69.648 29.968 65.488 31.136L64.944 30.096C68.608 29.056 70.816 26.96 70.816 24.272V23.712ZM65.696 23.712H71.712V24.784H65.696V23.712ZM75.36 22.784H76.688V31.04H75.36V22.784ZM72.224 26.496H75.616V27.6H72.224V26.496ZM67.36 31.648H76.688V37.056H67.36V31.648ZM75.392 32.72H68.672V35.968H75.392V32.72ZM82.2228 23.648H83.2788V25.584C83.2788 27.76 82.0468 30.048 79.9188 31.024L79.1988 29.984C81.0868 29.136 82.2228 27.232 82.2228 25.584V23.648ZM82.4308 23.648H83.4868V25.584C83.4868 27.232 84.5588 28.88 86.4148 29.632L85.7108 30.656C83.6148 29.776 82.4308 27.744 82.4308 25.584V23.648ZM90.1108 22.8H91.3748V31.536H90.1108V22.8ZM87.7748 26.544H90.5108V27.648H87.7748V26.544ZM87.0068 23.04H88.2708V31.456H87.0068V23.04ZM81.6788 32.32H91.3748V37.248H90.0628V33.408H81.6788V32.32Z" fill="#656565"/>
</svg>
